<svg xmlns="http://www.w3.org/2000/svg" viewBox="0 0 1280 880" width="1280" height="880">
  <defs>
    <marker id="arrowA" markerWidth="10" markerHeight="7" refX="9" refY="3.5" orient="auto">
      <polygon points="0 0, 10 3.5, 0 7" fill="#7c3aed"/>
    </marker>
    <marker id="arrowB" markerWidth="10" markerHeight="7" refX="9" refY="3.5" orient="auto">
      <polygon points="0 0, 10 3.5, 0 7" fill="#10b981"/>
    </marker>
    <marker id="arrowC" markerWidth="10" markerHeight="7" refX="9" refY="3.5" orient="auto">
      <polygon points="0 0, 10 3.5, 0 7" fill="#2563eb"/>
    </marker>
    <marker id="arrowE" markerWidth="10" markerHeight="7" refX="9" refY="3.5" orient="auto">
      <polygon points="0 0, 10 3.5, 0 7" fill="#f97316"/>
    </marker>
    <marker id="arrowF" markerWidth="10" markerHeight="7" refX="9" refY="3.5" orient="auto">
      <polygon points="0 0, 10 3.5, 0 7" fill="#7c3aed"/>
    </marker>
    <marker id="arrowG" markerWidth="10" markerHeight="7" refX="9" refY="3.5" orient="auto">
      <polygon points="0 0, 10 3.5, 0 7" fill="#ef4444"/>
    </marker>
    <marker id="arrowH" markerWidth="10" markerHeight="7" refX="9" refY="3.5" orient="auto">
      <polygon points="0 0, 10 3.5, 0 7" fill="#6b7280"/>
    </marker>
    <filter id="shadowSoft" x="-20%" y="-20%" width="140%" height="160%">
      <feDropShadow dx="0" dy="3" stdDeviation="6" flood-color="#0f172a" flood-opacity="0.12"/>
    </filter>
    <filter id="shadowGlass" x="-20%" y="-20%" width="140%" height="160%">
      <feDropShadow dx="0" dy="10" stdDeviation="16" flood-color="#020617" flood-opacity="0.28"/>
    </filter>
    <style>
    text { font-family: 'Helvetica Neue', Helvetica, Arial, 'PingFang SC', 'Microsoft YaHei', sans-serif; }
    .title { font-size: 30px; font-weight: 700; fill: #111827; }
    .subtitle { font-size: 14px; font-weight: 500; fill: #6b7280; }
    .section { font-size: 13px; font-weight: 700; fill: #2563eb; letter-spacing: 1.4px; }
    .section-sub { font-size: 12px; font-weight: 500; fill: #94a3b8; }
    .node-title { font-size: 18px; font-weight: 700; fill: #111827; }
    .node-sub { font-size: 12px; font-weight: 500; fill: #6b7280; }
    .node-type { font-size: 12px; font-weight: 700; fill: #9ca3af; letter-spacing: 0.08em; }
    .arrow-label { font-size: 12px; font-weight: 600; fill: #6b7280; }
    .legend { font-size: 12px; font-weight: 500; fill: #6b7280; }
    .footnote { font-size: 12px; font-weight: 500; fill: #94a3b8; }
    </style>
  </defs>
  <rect width="1280.0" height="880.0" fill="#ffffff"/>
  <text x="640.0" y="56" text-anchor="middle" class="title">Hermes Agent Project Architecture</text>
  <text x="640.0" y="82" text-anchor="middle" class="subtitle">Entrypoints, interface shells, agent runtime, tooling, and state backends</text>
  <rect x="64.0" y="122.0" width="1152.0" height="94.0" rx="16.0" fill="none" stroke="#dbe5f1" stroke-width="1.4" stroke-dasharray="6 5"/>
  <text x="32.0" y="169.0" text-anchor="start" dominant-baseline="middle" font-size="14.0" font-weight="600" fill="#6b7280">Entrypoints</text>
  <rect x="64.0" y="246.0" width="1152.0" height="104.0" rx="16.0" fill="none" stroke="#dbe5f1" stroke-width="1.4" stroke-dasharray="6 5"/>
  <text x="32.0" y="298.0" text-anchor="start" dominant-baseline="middle" font-size="14.0" font-weight="600" fill="#6b7280">Interface Shells</text>
  <rect x="64.0" y="382.0" width="1152.0" height="122.0" rx="16.0" fill="none" stroke="#dbe5f1" stroke-width="1.4" stroke-dasharray="6 5"/>
  <text x="32.0" y="443.0" text-anchor="start" dominant-baseline="middle" font-size="14.0" font-weight="600" fill="#6b7280">Runtime Core</text>
  <rect x="64.0" y="536.0" width="1152.0" height="146.0" rx="16.0" fill="none" stroke="#dbe5f1" stroke-width="1.4" stroke-dasharray="6 5"/>
  <text x="32.0" y="609.0" text-anchor="start" dominant-baseline="middle" font-size="14.0" font-weight="600" fill="#6b7280">Prompt + Tooling</text>
  <rect x="64.0" y="714.0" width="1152.0" height="106.0" rx="16.0" fill="none" stroke="#dbe5f1" stroke-width="1.4" stroke-dasharray="6 5"/>
  <text x="32.0" y="767.0" text-anchor="start" dominant-baseline="middle" font-size="14.0" font-weight="600" fill="#6b7280">State + Backends</text>
  <path d="M 231.0,196.0 L 221.0,272.0" fill="none" stroke="#2563eb" stroke-width="2.4" marker-end="url(#arrowC)"/>
  <path d="M 231.0,196.0 L 516.0,171.0 L 516.0,228.0 L 594.0,228.0 L 594.0,272.0 L 595.0,272.0" fill="none" stroke="#2563eb" stroke-width="2.4" marker-end="url(#arrowC)"/>
  <path d="M 636.0,196.0 L 636.0,236.0 L 760.0,236.0 L 760.0,390.0 L 640.0,390.0 L 640.0,414.0" fill="none" stroke="#7c3aed" stroke-width="2.4" marker-end="url(#arrowA)"/>
  <path d="M 1026.0,196.0 L 1015.0,272.0" fill="none" stroke="#2563eb" stroke-width="2.4" marker-end="url(#arrowC)"/>
  <path d="M 221.0,328.0 L 220.0,328.0 L 220.0,450.0 L 430.0,450.0 L 640.0,414.0" fill="none" stroke="#7c3aed" stroke-width="2.4" marker-end="url(#arrowA)"/>
  <path d="M 595.0,328.0 L 595.0,414.0 L 640.0,414.0" fill="none" stroke="#7c3aed" stroke-width="2.4" marker-end="url(#arrowA)"/>
  <path d="M 1015.0,328.0 L 1015.0,450.0 L 850.0,450.0 L 640.0,414.0" fill="none" stroke="#7c3aed" stroke-width="2.4" marker-end="url(#arrowA)"/>
  <path d="M 640.0,488.0 L 286.0,603.0" fill="none" stroke="#f97316" stroke-width="2.4" marker-end="url(#arrowE)"/>
  <path d="M 640.0,488.0 L 405.0,566.0" fill="none" stroke="#7c3aed" stroke-width="2.4" marker-end="url(#arrowA)"/>
  <path d="M 640.0,488.0 L 617.0,566.0" fill="none" stroke="#7c3aed" stroke-width="2.4" marker-end="url(#arrowA)"/>
  <path d="M 710.0,603.0 L 738.0,603.0" fill="none" stroke="#7c3aed" stroke-width="2.4" marker-end="url(#arrowA)"/>
  <path d="M 952.0,602.0 L 924.0,603.0" fill="none" stroke="#f97316" stroke-width="2.4" marker-end="url(#arrowE)"/>
  <path d="M 640.0,488.0 L 494.0,488.0 L 494.0,520.0 L 300.0,520.0 L 300.0,700.0 L 204.0,700.0 L 204.0,734.0 L 203.0,734.0" fill="none" stroke="#10b981" stroke-width="2.4" marker-end="url(#arrowB)"/>
  <path d="M 730.0,300.0 L 940.0,300.0 L 940.0,700.0 L 466.0,700.0 L 466.0,742.0" fill="none" stroke="#2563eb" stroke-width="2.4" marker-end="url(#arrowC)"/>
  <path d="M 640.0,488.0 L 769.0,742.0" fill="none" stroke="#2563eb" stroke-width="2.4" marker-end="url(#arrowC)"/>
  <path d="M 831.0,640.0 L 830.0,640.0 L 830.0,700.0 L 1068.0,700.0 L 1068.0,734.0 L 1069.0,734.0" fill="none" stroke="#2563eb" stroke-width="2.4" marker-end="url(#arrowC)"/>
  <rect x="126.0" y="146.0" width="210.0" height="50.0" rx="10.0" fill="#eff6ff" stroke="#93c5fd" stroke-width="1.8"/>
  <text x="231.0" y="164.0" text-anchor="middle" class="node-type">ENTRY</text>
  <text x="231.0" y="177.0" text-anchor="middle" class="node-title">hermes_cli/main.py</text>
  <rect x="536.0" y="146.0" width="200.0" height="50.0" rx="10.0" fill="#eff6ff" stroke="#93c5fd" stroke-width="1.8"/>
  <text x="636.0" y="164.0" text-anchor="middle" class="node-type">ENTRY</text>
  <text x="636.0" y="177.0" text-anchor="middle" class="node-title">run_agent.py</text>
  <rect x="916.0" y="146.0" width="220.0" height="50.0" rx="10.0" fill="#eff6ff" stroke="#93c5fd" stroke-width="1.8"/>
  <text x="1026.0" y="164.0" text-anchor="middle" class="node-type">ENTRY</text>
  <text x="1026.0" y="177.0" text-anchor="middle" class="node-title">acp_adapter/entry.py</text>
  <rect x="116.0" y="272.0" width="210.0" height="56.0" rx="10.0" fill="#f8fafc" stroke="#cbd5e1" stroke-width="1.8"/>
  <text x="221.0" y="290.0" text-anchor="middle" class="node-type">SHELL</text>
  <text x="221.0" y="306.0" text-anchor="middle" class="node-title">cli.py</text>
  <rect x="460.0" y="272.0" width="270.0" height="56.0" rx="10.0" fill="#f8fafc" stroke="#cbd5e1" stroke-width="1.8"/>
  <text x="595.0" y="290.0" text-anchor="middle" class="node-type">SHELL</text>
  <text x="595.0" y="306.0" text-anchor="middle" class="node-title">gateway/run.py</text>
  <rect x="890.0" y="272.0" width="250.0" height="56.0" rx="10.0" fill="#f8fafc" stroke="#cbd5e1" stroke-width="1.8"/>
  <text x="1015.0" y="290.0" text-anchor="middle" class="node-type">SHELL</text>
  <text x="1015.0" y="306.0" text-anchor="middle" class="node-title">acp_adapter/server.py</text>
  <rect x="430.0" y="414.0" width="420.0" height="74.0" rx="10.0" fill="#faf5ff" stroke="#c4b5fd" stroke-width="2.0" filter="url(#shadowSoft)"/>
  <rect x="436.0" y="420.0" width="408.0" height="62.0" rx="7.0" fill="none" stroke="#c4b5fd" stroke-width="1.2" opacity="0.65"/>
  <text x="640.0" y="432.0" text-anchor="middle" class="node-type">CORE</text>
  <text x="640.0" y="457.0" text-anchor="middle" class="node-title">AIAgent</text>
  <text x="640.0" y="479.0" text-anchor="middle" class="node-sub">run_conversation loop</text>
  <rect x="86.0" y="566.0" width="200.0" height="74.0" rx="10.0" fill="#fefce8" stroke="#fde68a" stroke-width="1.8"/>
  <text x="186.0" y="584.0" text-anchor="middle" class="node-type">PROMPT</text>
  <text x="186.0" y="609.0" text-anchor="middle" class="node-title">Prompt + memory</text>
  <text x="186.0" y="631.0" text-anchor="middle" class="node-sub">prompt_builder / memory_manager</text>
  <rect x="314.0" y="566.0" width="182.0" height="74.0" rx="10.0" fill="#fefce8" stroke="#fde68a" stroke-width="1.8"/>
  <text x="405.0" y="584.0" text-anchor="middle" class="node-type">CONTEXT</text>
  <text x="405.0" y="609.0" text-anchor="middle" class="node-title">Compression</text>
  <text x="405.0" y="631.0" text-anchor="middle" class="node-sub">context_compressor</text>
  <rect x="524.0" y="566.0" width="186.0" height="74.0" rx="10.0" fill="#ecfeff" stroke="#99f6e4" stroke-width="1.8"/>
  <text x="617.0" y="584.0" text-anchor="middle" class="node-type">ROUTER</text>
  <text x="617.0" y="609.0" text-anchor="middle" class="node-title">Tool routing</text>
  <text x="617.0" y="631.0" text-anchor="middle" class="node-sub">model_tools / toolsets</text>
  <rect x="738.0" y="566.0" width="186.0" height="74.0" rx="10.0" fill="#ecfdf5" stroke="#86efac" stroke-width="2.0" filter="url(#shadowSoft)"/>
  <rect x="744.0" y="572.0" width="174.0" height="62.0" rx="7.0" fill="none" stroke="#86efac" stroke-width="1.2" opacity="0.65"/>
  <text x="831.0" y="584.0" text-anchor="middle" class="node-type">TOOLS</text>
  <text x="831.0" y="609.0" text-anchor="middle" class="node-title">Tool registry</text>
  <text x="831.0" y="631.0" text-anchor="middle" class="node-sub">tools/registry / tools/*</text>
  <rect x="952.0" y="556.0" width="222.0" height="92.0" rx="10.0" fill="#fff7ed" stroke="#fdba74" stroke-width="1.8"/>
  <text x="1063.0" y="574.0" text-anchor="middle" class="node-type">EXTENSION</text>
  <text x="1063.0" y="608.0" text-anchor="middle" class="node-title">Extensions</text>
  <text x="1063.0" y="630.0" text-anchor="middle" class="node-sub">MCP / plugins / skills</text>
  <ellipse cx="203.0" cy="743.0" rx="52.5" ry="9.0" fill="#eef2ff" stroke="#a5b4fc" stroke-width="2.2"/>
  <rect x="98.0" y="743.0" width="210.0" height="54.0" fill="#eef2ff" stroke="#a5b4fc" stroke-width="2.2"/>
  <ellipse cx="203.0" cy="797.0" rx="52.5" ry="9.0" fill="#eef2ff" stroke="#a5b4fc" stroke-width="2.2"/>
  <ellipse cx="203.0" cy="761.36" rx="52.5" ry="9.0" fill="none" stroke="#a5b4fc" stroke-opacity="0.45" stroke-width="1.2"/>
  <ellipse cx="203.0" cy="777.2" rx="52.5" ry="9.0" fill="none" stroke="#a5b4fc" stroke-opacity="0.25" stroke-width="1.2"/>
  <text x="203.0" y="764.0" text-anchor="middle" class="node-title">SessionDB</text>
  <text x="203.0" y="788.0" text-anchor="middle" class="node-sub">SQLite + FTS5 + lineage</text>
  <rect x="356.0" y="742.0" width="220.0" height="56.0" rx="10.0" fill="#eef2ff" stroke="#a5b4fc" stroke-width="1.8"/>
  <text x="466.0" y="760.0" text-anchor="middle" class="node-type">STATE</text>
  <text x="466.0" y="776.0" text-anchor="middle" class="node-title">Gateway session</text>
  <text x="466.0" y="798.0" text-anchor="middle" class="node-sub">gateway/session.py</text>
  <rect x="644.0" y="742.0" width="250.0" height="56.0" rx="10.0" fill="#eef2ff" stroke="#a5b4fc" stroke-width="1.8"/>
  <text x="769.0" y="760.0" text-anchor="middle" class="node-type">MODEL</text>
  <text x="769.0" y="776.0" text-anchor="middle" class="node-title">Providers</text>
  <text x="769.0" y="798.0" text-anchor="middle" class="node-sub">clients + auth</text>
  <rect x="962.0" y="734.0" width="214.0" height="72.0" rx="10.0" fill="#eef2ff" stroke="#a5b4fc" stroke-width="1.8"/>
  <text x="1069.0" y="752.0" text-anchor="middle" class="node-type">EXECUTION</text>
  <text x="1069.0" y="776.0" text-anchor="middle" class="node-title">Tool backends</text>
  <text x="1069.0" y="798.0" text-anchor="middle" class="node-sub">terminal / web / browser / file</text>
  <rect x="973.0" y="722.0" width="275" height="134" rx="10" fill="#ffffff" opacity="0.88"/>
  <line x1="983.0" y1="736.0" x2="1013.0" y2="736.0" stroke="#2563eb" stroke-width="2.4" marker-end="url(#arrowC)"/>
  <text x="1023.0" y="740.0" class="legend">Entry and execution path</text>
  <line x1="983.0" y1="758.0" x2="1013.0" y2="758.0" stroke="#7c3aed" stroke-width="2.4" marker-end="url(#arrowA)"/>
  <text x="1023.0" y="762.0" class="legend">Runtime orchestration</text>
  <line x1="983.0" y1="780.0" x2="1013.0" y2="780.0" stroke="#f97316" stroke-width="2.4" marker-end="url(#arrowE)"/>
  <text x="1023.0" y="784.0" class="legend">Prompt and extension data</text>
  <line x1="983.0" y1="802.0" x2="1013.0" y2="802.0" stroke="#10b981" stroke-width="2.4" marker-end="url(#arrowB)"/>
  <text x="1023.0" y="806.0" class="legend">Persistence and writeback</text>
  <line x1="983.0" y1="824.0" x2="1013.0" y2="824.0" stroke="#7c3aed" stroke-width="2.4" marker-end="url(#arrowA)"/>
  <text x="1023.0" y="828.0" class="legend">Compression / background flow</text>
</svg>